<svg xmlns:dc="http://purl.org/dc/elements/1.1/" xmlns:cc="http://creativecommons.org/ns#" xmlns:rdf="http://www.w3.org/1999/02/22-rdf-syntax-ns#" xmlns:svg="http://www.w3.org/2000/svg" xmlns="http://www.w3.org/2000/svg" xmlns:sodipodi="http://sodipodi.sourceforge.net/DTD/sodipodi-0.dtd" xmlns:inkscape="http://www.inkscape.org/namespaces/inkscape" version="1.1" x="0px" y="0px" viewBox="0 0 100 125">
    <g transform="translate(0,-952.36218)">
        <path style="text-indent:0;text-transform:none;direction:ltr;block-progression:tb;baseline-shift:baseline;color:#000000;enable-background:accumulate;" d="m 17.473072,1010.8474 c -6.635039,6.6352 -6.635057,17.4066 3.4e-5,24.0417 6.635032,6.635 17.406551,6.635 24.041617,0 l 14.142132,-14.1422 c 6.635066,-6.635 6.635057,-17.4065 -1.4e-5,-24.0416 a 2.0002,2.0002 0 1 0 -2.828408,2.82847 c 5.117024,5.11693 5.117038,13.26773 -4e-6,18.38473 l -14.14213,14.1422 c -5.117016,5.1171 -13.267722,5.1171 -18.384773,0 -5.117051,-5.1171 -5.117049,-13.2677 -10e-7,-18.3848 l 13.43502,-13.435 a 2.0002,2.0002 0 1 0 -2.828432,-2.82846 l -13.435041,13.43496 z m 26.870071,-26.86999 c -6.635066,6.63506 -6.635074,17.40659 2.6e-5,24.04159 a 2.0002,2.0002 0 1 0 2.828422,-2.8284 c -5.117062,-5.117 -5.117072,-13.26772 -2.2e-5,-18.38477 L 61.313705,972.6637 c 5.117049,-5.11705 13.267735,-5.11704 18.384791,1e-5 5.117049,5.11705 5.117043,13.26772 9e-6,18.3848 l -13.435057,13.43499 a 2.0002,2.0002 0 1 0 2.828427,2.8284 l 13.435043,-13.43501 c 6.63508,-6.63502 6.63507,-17.40654 5e-6,-24.0416 -6.635086,-6.63509 -17.406577,-6.63508 -24.041643,-2e-5 l -14.142137,14.14214 z" fill="#000000" fill-opacity="1" stroke="none" marker="none" visibility="visible" display="inline" overflow="visible"/>
    </g>
</svg>